<svg width="28" height="30" viewBox="0 0 28 30" fill="none" xmlns="http://www.w3.org/2000/svg">
<g filter="url(#filter0_d_261_2235)">
<path d="M17 4V11H7.17L6 12.17V4H17ZM18 2H5C4.45 2 4 2.45 4 3V17L8 13H18C18.55 13 19 12.55 19 12V3C19 2.45 18.55 2 18 2ZM23 6H21V15H8V17C8 17.55 8.45 18 9 18H20L24 22V7C24 6.45 23.55 6 23 6Z" fill="black"/>
</g>
<defs>
<filter id="filter0_d_261_2235" x="-2" y="0" width="32" height="32" filterUnits="userSpaceOnUse" color-interpolation-filters="sRGB">
<feFlood flood-opacity="0" result="BackgroundImageFix"/>
<feColorMatrix in="SourceAlpha" type="matrix" values="0 0 0 0 0 0 0 0 0 0 0 0 0 0 0 0 0 0 127 0" result="hardAlpha"/>
<feOffset dy="4"/>
<feGaussianBlur stdDeviation="2"/>
<feComposite in2="hardAlpha" operator="out"/>
<feColorMatrix type="matrix" values="0 0 0 0 0 0 0 0 0 0 0 0 0 0 0 0 0 0 0.25 0"/>
<feBlend mode="normal" in2="BackgroundImageFix" result="effect1_dropShadow_261_2235"/>
<feBlend mode="normal" in="SourceGraphic" in2="effect1_dropShadow_261_2235" result="shape"/>
</filter>
</defs>
</svg>
