<svg width="25" height="25" viewBox="0 0 25 25" fill="none" xmlns="http://www.w3.org/2000/svg">
<g clip-path="url(#clip0_381_630)">
<path d="M17.2813 7.89587L10.4167 14.7605L6.67712 11.0313L5.20837 12.5L10.4167 17.7084L18.75 9.37504L17.2813 7.89587ZM12.5 2.08337C6.75004 2.08337 2.08337 6.75004 2.08337 12.5C2.08337 18.25 6.75004 22.9167 12.5 22.9167C18.25 22.9167 22.9167 18.25 22.9167 12.5C22.9167 6.75004 18.25 2.08337 12.5 2.08337ZM12.5 20.8334C7.89587 20.8334 4.16671 17.1042 4.16671 12.5C4.16671 7.89587 7.89587 4.16671 12.5 4.16671C17.1042 4.16671 20.8334 7.89587 20.8334 12.5C20.8334 17.1042 17.1042 20.8334 12.5 20.8334Z" fill="white"/>
</g>
<defs>
<clipPath id="clip0_381_630">
<rect width="25" height="25" fill="white"/>
</clipPath>
</defs>
</svg>
