<svg width="24" height="30" viewBox="0 0 24 30" fill="none" xmlns="http://www.w3.org/2000/svg">
<g filter="url(#filter0_d_261_2222)">
<path d="M11.0688 12.35C11.8388 10.96 13.3188 10.14 14.1788 8.91C15.0888 7.62 14.5788 5.21 11.9988 5.21C10.3088 5.21 9.47876 6.49 9.12876 7.55L6.53876 6.46C7.24876 4.33 9.17876 2.5 11.9888 2.5C14.3388 2.5 15.9488 3.57 16.7688 4.91C17.4688 6.06 17.8788 8.21 16.7988 9.81C15.5988 11.58 14.4488 12.12 13.8288 13.26C13.5788 13.72 13.4788 14.02 13.4788 15.5H10.5888C10.5788 14.72 10.4588 13.45 11.0688 12.35ZM13.9988 19.5C13.9988 20.6 13.0988 21.5 11.9988 21.5C10.8988 21.5 9.99876 20.6 9.99876 19.5C9.99876 18.4 10.8988 17.5 11.9988 17.5C13.0988 17.5 13.9988 18.4 13.9988 19.5Z" fill="black"/>
</g>
<defs>
<filter id="filter0_d_261_2222" x="-4" y="0" width="32" height="32" filterUnits="userSpaceOnUse" color-interpolation-filters="sRGB">
<feFlood flood-opacity="0" result="BackgroundImageFix"/>
<feColorMatrix in="SourceAlpha" type="matrix" values="0 0 0 0 0 0 0 0 0 0 0 0 0 0 0 0 0 0 127 0" result="hardAlpha"/>
<feOffset dy="4"/>
<feGaussianBlur stdDeviation="2"/>
<feComposite in2="hardAlpha" operator="out"/>
<feColorMatrix type="matrix" values="0 0 0 0 0 0 0 0 0 0 0 0 0 0 0 0 0 0 0.25 0"/>
<feBlend mode="normal" in2="BackgroundImageFix" result="effect1_dropShadow_261_2222"/>
<feBlend mode="normal" in="SourceGraphic" in2="effect1_dropShadow_261_2222" result="shape"/>
</filter>
</defs>
</svg>
